# Blender v2.78 (sub 0) OBJ File: 'danbo2.blend'
# www.blender.org
mtllib danbo2.mtl
o ab
v -0.155251 -0.803940 -0.000255
v -0.155677 -0.803984 -0.168781
v -0.001417 -0.802570 -0.000645
v -0.001842 -0.802614 -0.169170
v -0.005533 -0.340740 -0.000754
v -0.159367 -0.342111 -0.000365
v -0.005959 -0.340784 -0.169280
v -0.159793 -0.342155 -0.168891
v 0.193881 -0.803116 -0.169806
v 0.348137 -0.801541 -0.001668
v 0.194305 -0.803171 -0.001281
v 0.347713 -0.801486 -0.170193
v 0.343243 -0.339719 -0.001505
v 0.189411 -0.341349 -0.001119
v 0.342819 -0.339664 -0.170031
v 0.188987 -0.341294 -0.169644
v 0.402279 -0.400937 0.196974
v -0.204413 0.669697 0.198518
v -0.204413 -0.400937 0.198518
v 0.402279 0.669697 0.196974
v -0.205758 -0.400937 -0.330189
v -0.205758 0.669698 -0.330189
v 0.400933 0.669698 -0.331733
v 0.400933 -0.400937 -0.331733
v 0.331121 0.388146 -0.001483
v 0.331342 0.388866 -0.170159
v 0.341450 0.229327 0.000013
v 0.331986 0.234222 -0.169861
v 0.782259 0.440768 -0.013904
v 0.802700 0.288622 -0.013428
v 0.797708 0.287349 -0.181875
v 0.777340 0.439357 -0.182320
v -0.576749 0.467771 -0.015832
v -0.570228 0.465807 -0.183693
v -0.611822 0.318383 -0.018025
v -0.604257 0.317541 -0.186080
v -0.139898 0.380326 -0.000302
v -0.140812 0.226376 -0.000359
v -0.141313 0.226325 -0.168860
v -0.139958 0.380102 -0.168752
v -0.511529 1.389828 0.300112
v -0.582694 0.622092 0.296940
v 0.733252 0.500022 0.318516
v 0.804417 1.267758 0.321687
v -0.570236 0.624030 -0.451957
v -0.499071 1.391766 -0.448786
v 0.816875 1.269696 -0.427211
v 0.745710 0.501960 -0.430382
v -0.186984 1.098510 0.359838
v -0.191898 1.077207 0.359701
v -0.190983 1.055363 0.359660
v -0.184301 1.034467 0.359717
v -0.176575 1.117821 0.360061
v -0.172308 1.015943 0.359868
v -0.161381 1.133823 0.360355
v -0.142438 1.145427 0.360701
v -0.155821 1.001053 0.360104
v -0.135963 0.990812 0.360408
v -0.121037 1.151840 0.361073
v -0.114088 0.985918 0.360759
v -0.098635 1.152626 0.361448
v -0.076760 1.147733 0.361799
v -0.091686 0.986705 0.361134
v -0.056902 1.137492 0.362103
v -0.070284 0.993118 0.361507
v -0.051341 1.004722 0.361852
v -0.040414 1.122602 0.362339
v -0.028421 1.104078 0.362490
v -0.036148 1.020724 0.362146
v -0.021740 1.083182 0.362547
v -0.020825 1.061338 0.362506
v -0.025739 1.040034 0.362369
v -0.074928 1.148018 0.251667
v -0.096803 1.152912 0.251316
v -0.055070 1.137777 0.251971
v -0.038582 1.122887 0.252207
v -0.026589 1.104363 0.252358
v -0.019907 1.083467 0.252415
v -0.018993 1.061623 0.252374
v -0.023907 1.040319 0.252237
v -0.034316 1.021009 0.252014
v -0.049509 1.005007 0.251720
v -0.068452 0.993403 0.251375
v -0.089854 0.986990 0.251002
v -0.112256 0.986203 0.250627
v -0.134131 0.991097 0.250276
v -0.153989 1.001338 0.249972
v -0.170476 1.016228 0.249736
v -0.182469 1.034752 0.249585
v -0.189151 1.055648 0.249528
v -0.190066 1.077492 0.249569
v -0.185152 1.098795 0.249706
v -0.174743 1.118106 0.249929
v -0.159549 1.134108 0.250223
v -0.140606 1.145712 0.250569
v -0.119205 1.152125 0.250941
v 0.099703 0.882016 0.364047
v -0.104006 0.709761 0.360212
v 0.268277 0.675228 0.366316
v 0.270109 0.675513 0.256184
v 0.101535 0.882301 0.253915
v -0.102174 0.710046 0.250080
v 0.395891 1.022682 0.369338
v 0.394977 1.044526 0.369379
v 0.390977 1.001379 0.369201
v 0.380568 0.982068 0.368978
v 0.388295 1.065422 0.369322
v 0.376302 1.083946 0.369171
v 0.365375 0.966066 0.368684
v 0.359814 1.098836 0.368935
v 0.346432 0.954463 0.368339
v 0.325030 0.948049 0.367966
v 0.339957 1.109077 0.368631
v 0.302628 0.947263 0.367591
v 0.318081 1.113971 0.368280
v 0.295679 1.113184 0.367905
v 0.280753 0.952157 0.367240
v 0.274278 1.106771 0.367533
v 0.260895 0.962397 0.366936
v 0.244408 0.977287 0.366701
v 0.255335 1.095167 0.367188
v 0.232415 0.995811 0.366549
v 0.240141 1.079165 0.366893
v 0.229732 1.059855 0.366670
v 0.225733 1.016707 0.366492
v 0.224818 1.038551 0.366533
v 0.341789 1.109362 0.258499
v 0.319913 1.114256 0.258148
v 0.361646 1.099122 0.258803
v 0.378134 1.084231 0.259039
v 0.390127 1.065707 0.259190
v 0.396809 1.044811 0.259247
v 0.397723 1.022967 0.259206
v 0.392809 1.001664 0.259069
v 0.382400 0.982353 0.258846
v 0.367207 0.966351 0.258552
v 0.348264 0.954748 0.258207
v 0.326862 0.948334 0.257834
v 0.304460 0.947548 0.257459
v 0.282585 0.952441 0.257108
v 0.262727 0.962682 0.256804
v 0.246240 0.977572 0.256569
v 0.234247 0.996096 0.256417
v 0.227565 1.016992 0.256360
v 0.226650 1.038836 0.256401
v 0.231565 1.060140 0.256538
v 0.241973 1.079450 0.256761
v 0.257167 1.095453 0.257056
v 0.276110 1.107056 0.257401
v 0.297511 1.113469 0.257773
vt 0.0000 1.0000
vt 0.0000 1.0000
vt 0.0000 1.0000
vt 0.0000 1.0000
vt 0.0000 1.0000
vt 0.0000 1.0000
vt 0.0000 1.0000
vt 0.0000 1.0000
vt 0.0000 1.0000
vt 0.0000 1.0000
vt 0.0000 1.0000
vt 0.0000 1.0000
vt 0.0000 1.0000
vt 0.0000 1.0000
vt 0.0000 1.0000
vt 0.0000 1.0000
vt 0.0000 1.0000
vt 0.0000 1.0000
vt 0.0000 1.0000
vt 0.0000 1.0000
vt 0.0000 1.0000
vt 0.0000 1.0000
vt 0.0000 1.0000
vt 0.0000 1.0000
vt 0.0000 1.0000
vt 0.0000 1.0000
vt 0.0000 1.0000
vt 0.0000 1.0000
vt 0.0000 1.0000
vt 0.0000 1.0000
vt 0.0000 1.0000
vt 0.0000 1.0000
vt 0.0000 1.0000
vt 0.0000 1.0000
vt 0.0000 1.0000
vt 0.0000 1.0000
vt 0.0000 1.0000
vt 0.0000 1.0000
vt 0.0000 1.0000
vt 0.0000 1.0000
vt 0.0000 1.0000
vt 0.0000 1.0000
vt 0.0000 1.0000
vt 0.0000 1.0000
vt 0.0000 1.0000
vt 0.0000 1.0000
vt 0.0000 1.0000
vt 0.0000 1.0000
vt 0.0000 1.0000
vt 0.0000 1.0000
vt 0.0000 1.0000
vt 0.0000 1.0000
vt 0.0000 1.0000
vt 0.0000 1.0000
vt 0.0000 1.0000
vt 0.0000 1.0000
vt 0.0000 1.0000
vt 0.0000 1.0000
vt 0.0000 1.0000
vt 0.0000 1.0000
vt 0.0000 1.0000
vt 0.0000 1.0000
vt 0.0000 1.0000
vt 0.0000 1.0000
vt 0.0000 1.0000
vt 0.0000 1.0000
vt 0.0000 1.0000
vt 0.0000 1.0000
vt 0.0000 1.0000
vt 0.0000 1.0000
vt 0.0000 1.0000
vt 0.0000 1.0000
vt 0.0000 1.0000
vt 0.0000 1.0000
vt 0.0000 1.0000
vt 0.0000 1.0000
vt 0.0000 1.0000
vt 0.0000 1.0000
vt 0.0000 1.0000
vt 0.0000 1.0000
vt 0.0000 1.0000
vt 0.0000 1.0000
vt 0.0000 1.0000
vt 0.0000 1.0000
vt 0.0000 1.0000
vt 0.0000 1.0000
vt 0.0000 1.0000
vt 0.0000 1.0000
vt 0.0000 1.0000
vt 0.0000 1.0000
vt 0.0000 1.0000
vt 0.0000 1.0000
vt 0.0000 1.0000
vt 0.0000 1.0000
vt 0.0000 1.0000
vt 0.0000 1.0000
vt 0.0000 1.0000
vt 0.0000 1.0000
vt 0.0000 1.0000
vt 0.0000 1.0000
vt 0.0000 1.0000
vt 0.0000 1.0000
vt 0.0000 1.0000
vt 0.0000 1.0000
vt 0.0000 1.0000
vt 0.0000 1.0000
vt 0.0000 1.0000
vt 0.0000 1.0000
vt 0.0000 1.0000
vt 0.0000 1.0000
vt 0.0000 1.0000
vt 0.0000 1.0000
vt 0.0000 1.0000
vt 0.0000 1.0000
vt 0.0000 1.0000
vt 0.0000 1.0000
vt 0.0000 1.0000
vt 0.0000 1.0000
vt 0.0000 1.0000
vt 0.0000 1.0000
vt 0.0000 1.0000
vt 0.0000 1.0000
vt 0.0000 1.0000
vt 0.0000 1.0000
vt 0.0000 1.0000
vt 0.0000 1.0000
vt 0.0000 1.0000
vt 0.0000 1.0000
vt 0.0000 1.0000
vt 0.0000 1.0000
vt 0.0000 1.0000
vt 0.0000 1.0000
vt 0.0000 1.0000
vt 0.0000 1.0000
vt 0.0000 1.0000
vt 0.0000 1.0000
vt 0.0000 1.0000
vt 0.0000 1.0000
vt 0.0000 1.0000
vt 0.0000 1.0000
vt 0.0000 1.0000
vt 0.0000 1.0000
vt 0.0000 1.0000
vt 0.0000 1.0000
vt 0.0000 1.0000
vt 0.0000 1.0000
vt 0.0000 1.0000
vt 0.0000 1.0000
vt 0.0000 1.0000
vt 0.0000 1.0000
vn 0.0089 -1.0000 0.0002
vn 0.0025 0.0003 1.0000
vn 1.0000 0.0089 -0.0025
vn -0.0025 -0.0003 -1.0000
vn -1.0000 -0.0089 0.0025
vn -0.0089 1.0000 -0.0002
vn 0.0106 -0.9999 -0.0004
vn 0.0025 -0.0003 1.0000
vn 0.9999 0.0106 -0.0025
vn -0.0025 0.0003 -1.0000
vn -0.9999 -0.0106 0.0025
vn -0.0106 0.9999 0.0004
vn 0.0025 -0.0000 1.0000
vn -1.0000 0.0000 0.0025
vn 0.0000 1.0000 0.0000
vn 1.0000 -0.0000 -0.0025
vn -0.0000 -1.0000 -0.0000
vn -0.0025 0.0000 -1.0000
vn -0.9979 -0.0649 -0.0016
vn -0.9984 -0.0040 0.0555
vn 0.0267 0.0067 0.9996
vn 0.0277 0.0112 0.9996
vn 0.1264 -0.9913 -0.0356
vn 0.1134 -0.9935 0.0041
vn -0.0256 -0.0020 -0.9997
vn -0.0265 -0.0065 -0.9996
vn -0.1157 0.9933 0.0041
vn -0.1126 0.9936 -0.0050
vn 0.9907 0.1330 -0.0301
vn 0.9907 0.1327 -0.0304
vn -0.9726 0.2289 -0.0405
vn -0.9735 0.2242 -0.0450
vn -0.0367 -0.0060 0.9993
vn -0.0375 -0.0001 0.9993
vn -0.1916 -0.9815 -0.0037
vn -0.1933 -0.9811 0.0009
vn 0.0363 0.0078 -0.9993
vn 0.0372 0.0004 -0.9993
vn 0.1964 0.9805 -0.0038
vn 0.1954 0.9807 -0.0014
vn 1.0000 -0.0059 -0.0004
vn 1.0000 -0.0088 -0.0030
vn -0.0166 -0.0026 0.9999
vn -0.9956 0.0924 -0.0163
vn 0.0923 0.9957 0.0041
vn 0.9956 -0.0924 0.0163
vn -0.0923 -0.9957 -0.0041
vn 0.0166 0.0026 -0.9999
vn -0.0167 -0.0026 0.9999
vn 0.2182 0.9759 0.0062
vn 0.4582 0.8888 0.0099
vn 0.6701 0.7422 0.0131
vn 0.8393 0.5435 0.0154
vn 0.9523 0.3046 0.0166
vn 0.9990 0.0418 0.0167
vn 0.9743 -0.2248 0.0156
vn 0.8801 -0.4746 0.0134
vn 0.7251 -0.6886 0.0103
vn 0.5222 -0.8528 0.0065
vn 0.2870 -0.9579 0.0023
vn 0.0351 -0.9994 -0.0020
vn -0.2182 -0.9759 -0.0062
vn -0.4582 -0.8888 -0.0099
vn -0.6701 -0.7422 -0.0131
vn -0.8393 -0.5435 -0.0154
vn -0.9523 -0.3046 -0.0166
vn -0.9990 -0.0418 -0.0167
vn -0.9743 0.2248 -0.0156
vn -0.8801 0.4746 -0.0134
vn -0.7251 0.6886 -0.0103
vn -0.5222 0.8528 -0.0065
vn -0.2870 0.9579 -0.0023
vn -0.0351 0.9994 0.0020
vn 0.7749 0.6319 0.0145
vn -0.6456 0.7637 -0.0088
usemtl default
s off
f 1/1/1 2/2/1 3/3/1
f 2/2/1 4/4/1 3/3/1
f 5/5/2 6/6/2 1/1/2
f 5/5/2 1/1/2 3/3/2
f 4/4/3 5/5/3 3/3/3
f 7/7/3 5/5/3 4/4/3
f 2/2/4 7/7/4 4/4/4
f 8/8/4 7/7/4 2/2/4
f 6/6/5 2/2/5 1/1/5
f 6/6/5 8/8/5 2/2/5
f 8/8/6 6/6/6 5/5/6
f 7/7/6 8/8/6 5/5/6
f 9/9/7 10/10/7 11/11/7
f 12/12/7 10/10/7 9/9/7
f 13/13/8 14/14/8 11/11/8
f 10/10/8 13/13/8 11/11/8
f 12/12/9 13/13/9 10/10/9
f 15/15/9 13/13/9 12/12/9
f 15/15/10 12/12/10 9/9/10
f 16/16/10 15/15/10 9/9/10
f 14/14/11 9/9/11 11/11/11
f 14/14/11 16/16/11 9/9/11
f 13/13/12 16/16/12 14/14/12
f 13/13/12 15/15/12 16/16/12
f 17/17/13 18/18/13 19/19/13
f 20/20/13 18/18/13 17/17/13
f 18/18/14 21/21/14 19/19/14
f 18/18/14 22/22/14 21/21/14
f 20/20/15 22/22/15 18/18/15
f 23/23/15 22/22/15 20/20/15
f 24/24/16 20/20/16 17/17/16
f 23/23/16 20/20/16 24/24/16
f 21/21/17 17/17/17 19/19/17
f 21/21/17 24/24/17 17/17/17
f 22/22/18 24/24/18 21/21/18
f 22/22/18 23/23/18 24/24/18
f 25/25/19 26/26/19 27/27/19
f 26/26/20 28/28/20 27/27/20
f 29/29/21 25/25/21 30/30/21
f 25/25/22 27/27/22 30/30/22
f 27/27/23 28/28/23 30/30/23
f 28/28/24 31/31/24 30/30/24
f 28/28/25 26/26/25 31/31/25
f 26/26/26 32/32/26 31/31/26
f 26/26/27 25/25/27 29/29/27
f 32/32/28 26/26/28 29/29/28
f 32/32/29 29/29/29 30/30/29
f 31/31/30 32/32/30 30/30/30
f 33/33/31 34/34/31 35/35/31
f 34/34/32 36/36/32 35/35/32
f 37/37/33 33/33/33 35/35/33
f 38/38/34 37/37/34 35/35/34
f 36/36/35 38/38/35 35/35/35
f 39/39/36 38/38/36 36/36/36
f 34/34/37 40/40/37 36/36/37
f 40/40/38 39/39/38 36/36/38
f 37/37/39 34/34/39 33/33/39
f 37/37/40 40/40/40 34/34/40
f 40/40/41 37/37/41 38/38/41
f 39/39/42 40/40/42 38/38/42
f 41/41/43 42/42/43 43/43/43
f 44/44/43 41/41/43 43/43/43
f 41/41/44 45/45/44 42/42/44
f 41/41/44 46/46/44 45/45/44
f 46/46/45 41/41/45 44/44/45
f 47/47/45 46/46/45 44/44/45
f 48/48/46 44/44/46 43/43/46
f 47/47/46 44/44/46 48/48/46
f 45/45/47 43/43/47 42/42/47
f 45/45/47 48/48/47 43/43/47
f 46/46/48 48/48/48 45/45/48
f 46/46/48 47/47/48 48/48/48
f 91/49/48 92/50/48 90/51/48
f 90/51/48 92/50/48 89/52/48
f 92/50/48 93/53/48 89/52/48
f 93/53/48 94/54/48 89/52/48
f 89/52/48 94/54/48 88/55/48
f 94/54/48 95/56/48 88/55/48
f 88/55/48 95/56/48 87/57/48
f 87/57/48 95/56/48 86/58/48
f 95/56/48 96/59/48 86/58/48
f 86/58/48 96/59/48 85/60/48
f 96/59/48 74/61/48 85/60/48
f 74/61/48 73/62/48 85/60/48
f 73/62/48 84/63/48 85/60/48
f 73/62/48 75/64/48 84/63/48
f 75/64/48 83/65/48 84/63/48
f 75/64/48 82/66/48 83/65/48
f 75/64/48 76/67/48 82/66/48
f 76/67/48 81/68/48 82/66/48
f 76/67/48 77/69/48 81/68/48
f 77/69/48 78/70/48 81/68/48
f 78/70/48 80/71/48 81/68/48
f 78/70/48 79/72/48 80/71/48
f 102/73/48 101/74/48 100/75/48
f 145/76/48 146/77/48 144/78/48
f 144/78/48 146/77/48 143/79/48
f 146/77/48 147/80/48 143/79/48
f 147/80/48 148/81/48 143/79/48
f 143/79/48 148/81/48 142/82/48
f 148/81/48 149/83/48 142/82/48
f 142/82/48 149/83/48 141/84/48
f 141/84/48 149/83/48 140/85/48
f 149/83/48 150/86/48 140/85/48
f 140/85/48 150/86/48 139/87/48
f 150/86/48 128/88/48 139/87/48
f 128/88/48 127/89/48 139/87/48
f 127/89/48 138/90/48 139/87/48
f 127/89/48 129/91/48 138/90/48
f 129/91/48 137/92/48 138/90/48
f 129/91/48 136/93/48 137/92/48
f 129/91/48 130/94/48 136/93/48
f 130/94/48 135/95/48 136/93/48
f 130/94/48 131/96/48 135/95/48
f 131/96/48 132/97/48 135/95/48
f 132/97/48 134/98/48 135/95/48
f 132/97/48 133/99/48 134/98/48
usemtl マテリアル
f 49/100/43 50/101/43 51/102/43
f 49/100/43 51/102/43 52/103/43
f 53/104/43 49/100/43 52/103/43
f 53/104/43 52/103/43 54/105/43
f 55/106/43 53/104/43 54/105/43
f 56/107/43 55/106/43 54/105/43
f 56/107/43 54/105/43 57/108/43
f 56/107/43 57/108/43 58/109/43
f 59/110/43 56/107/43 58/109/43
f 59/110/43 58/109/43 60/111/43
f 61/112/43 59/110/43 60/111/43
f 62/113/43 61/112/43 60/111/43
f 63/114/43 62/113/43 60/111/43
f 64/115/43 62/113/43 63/114/43
f 65/116/43 64/115/43 63/114/43
f 66/117/43 64/115/43 65/116/43
f 67/118/43 64/115/43 66/117/43
f 68/119/43 67/118/43 66/117/43
f 69/120/43 68/119/43 66/117/43
f 70/121/43 68/119/43 69/120/43
f 71/122/49 70/121/49 72/123/49
f 72/123/43 70/121/43 69/120/43
f 73/62/50 61/112/50 62/113/50
f 74/61/50 61/112/50 73/62/50
f 75/64/51 62/113/51 64/115/51
f 73/62/51 62/113/51 75/64/51
f 76/67/52 64/115/52 67/118/52
f 75/64/52 64/115/52 76/67/52
f 77/69/53 67/118/53 68/119/53
f 76/67/53 67/118/53 77/69/53
f 78/70/54 68/119/54 70/121/54
f 77/69/54 68/119/54 78/70/54
f 79/72/55 70/121/55 71/122/55
f 78/70/55 70/121/55 79/72/55
f 80/71/56 71/122/56 72/123/56
f 79/72/56 71/122/56 80/71/56
f 81/68/57 72/123/57 69/120/57
f 80/71/57 72/123/57 81/68/57
f 82/66/58 69/120/58 66/117/58
f 81/68/58 69/120/58 82/66/58
f 83/65/59 66/117/59 65/116/59
f 82/66/59 66/117/59 83/65/59
f 84/63/60 65/116/60 63/114/60
f 83/65/60 65/116/60 84/63/60
f 85/60/61 63/114/61 60/111/61
f 84/63/61 63/114/61 85/60/61
f 58/109/62 85/60/62 60/111/62
f 58/109/62 86/58/62 85/60/62
f 57/108/63 86/58/63 58/109/63
f 57/108/63 87/57/63 86/58/63
f 54/105/64 87/57/64 57/108/64
f 54/105/64 88/55/64 87/57/64
f 52/103/65 88/55/65 54/105/65
f 52/103/65 89/52/65 88/55/65
f 51/102/66 89/52/66 52/103/66
f 51/102/66 90/51/66 89/52/66
f 50/101/67 90/51/67 51/102/67
f 50/101/67 91/49/67 90/51/67
f 49/100/68 91/49/68 50/101/68
f 49/100/68 92/50/68 91/49/68
f 53/104/69 92/50/69 49/100/69
f 53/104/69 93/53/69 92/50/69
f 55/106/70 93/53/70 53/104/70
f 55/106/70 94/54/70 93/53/70
f 56/107/71 94/54/71 55/106/71
f 56/107/71 95/56/71 94/54/71
f 59/110/72 95/56/72 56/107/72
f 59/110/72 96/59/72 95/56/72
f 61/112/73 96/59/73 59/110/73
f 61/112/73 74/61/73 96/59/73
f 97/124/43 98/125/43 99/126/43
f 100/75/74 97/124/74 99/126/74
f 101/74/74 97/124/74 100/75/74
f 98/125/47 102/73/47 99/126/47
f 102/73/47 100/75/47 99/126/47
f 97/124/75 102/73/75 98/125/75
f 97/124/75 101/74/75 102/73/75
f 103/127/49 104/128/49 105/129/49
f 105/129/43 104/128/43 106/130/43
f 104/128/43 107/131/43 106/130/43
f 107/131/43 108/132/43 106/130/43
f 106/130/43 108/132/43 109/133/43
f 108/132/43 110/134/43 109/133/43
f 109/133/43 110/134/43 111/135/43
f 111/135/43 110/134/43 112/136/43
f 110/134/43 113/137/43 112/136/43
f 112/136/43 113/137/43 114/138/43
f 113/137/43 115/139/43 114/138/43
f 115/139/43 116/140/43 114/138/43
f 116/140/43 117/141/43 114/138/43
f 116/140/43 118/142/43 117/141/43
f 118/142/43 119/143/43 117/141/43
f 118/142/43 120/144/43 119/143/43
f 118/142/43 121/145/43 120/144/43
f 121/145/43 122/146/43 120/144/43
f 121/145/43 123/147/43 122/146/43
f 123/147/43 124/148/43 122/146/43
f 124/148/43 125/149/43 122/146/43
f 124/148/49 126/150/49 125/149/49
f 127/89/50 115/139/50 113/137/50
f 128/88/50 115/139/50 127/89/50
f 129/91/51 113/137/51 110/134/51
f 127/89/51 113/137/51 129/91/51
f 130/94/52 110/134/52 108/132/52
f 129/91/52 110/134/52 130/94/52
f 131/96/53 108/132/53 107/131/53
f 130/94/53 108/132/53 131/96/53
f 132/97/54 107/131/54 104/128/54
f 131/96/54 107/131/54 132/97/54
f 133/99/55 104/128/55 103/127/55
f 132/97/55 104/128/55 133/99/55
f 134/98/56 103/127/56 105/129/56
f 133/99/56 103/127/56 134/98/56
f 135/95/57 105/129/57 106/130/57
f 134/98/57 105/129/57 135/95/57
f 136/93/58 106/130/58 109/133/58
f 135/95/58 106/130/58 136/93/58
f 137/92/59 109/133/59 111/135/59
f 136/93/59 109/133/59 137/92/59
f 138/90/60 111/135/60 112/136/60
f 137/92/60 111/135/60 138/90/60
f 139/87/61 112/136/61 114/138/61
f 138/90/61 112/136/61 139/87/61
f 117/141/62 139/87/62 114/138/62
f 117/141/62 140/85/62 139/87/62
f 119/143/63 140/85/63 117/141/63
f 119/143/63 141/84/63 140/85/63
f 120/144/64 141/84/64 119/143/64
f 120/144/64 142/82/64 141/84/64
f 122/146/65 142/82/65 120/144/65
f 122/146/65 143/79/65 142/82/65
f 125/149/66 143/79/66 122/146/66
f 125/149/66 144/78/66 143/79/66
f 126/150/67 144/78/67 125/149/67
f 126/150/67 145/76/67 144/78/67
f 124/148/68 145/76/68 126/150/68
f 124/148/68 146/77/68 145/76/68
f 123/147/69 146/77/69 124/148/69
f 123/147/69 147/80/69 146/77/69
f 121/145/70 147/80/70 123/147/70
f 121/145/70 148/81/70 147/80/70
f 118/142/71 148/81/71 121/145/71
f 118/142/71 149/83/71 148/81/71
f 116/140/72 149/83/72 118/142/72
f 116/140/72 150/86/72 149/83/72
f 115/139/73 150/86/73 116/140/73
f 115/139/73 128/88/73 150/86/73
